<svg version="1.1" xmlns="http://www.w3.org/2000/svg" xmlns:xlink="http://www.w3.org/1999/xlink" x="0px" y="0px"
	 width="319.6px" height="228.4px" viewBox="0 0 319.6 228.4" style="enable-background:new 0 0 319.6 228.4;" xml:space="preserve"
	>
<style type="text/css">
	.st0{fill:#FFFFFF;}
</style>
<g>
	<path class="st0" d="M0,213.3h5.8c3.5,0,5.6,2,5.6,5l0,0c0,3.3-2.7,5.1-5.9,5.1H2.6v4.8H0L0,213.3L0,213.3z M5.6,221
		c2,0,3.2-1.1,3.2-2.6l0,0c0-1.7-1.3-2.6-3.2-2.6h-3v5.3L5.6,221L5.6,221z"/>
	<path class="st0" d="M22.1,213.2h2.4l6.5,14.9h-2.8l-1.5-3.6h-7l-1.5,3.6h-2.7L22.1,213.2z M25.8,222.2l-2.6-5.9l-2.5,5.9H25.8z"/>
	<path class="st0" d="M37.8,213.3h6.7c1.7,0,3,0.5,3.9,1.3c0.7,0.7,1,1.5,1,2.5l0,0c0,1.8-1,2.7-2.1,3.3c1.7,0.6,2.9,1.6,2.9,3.6
		l0,0c0,2.6-2.2,4.1-5.5,4.1h-6.9V213.3z M44,219.5c1.7,0,2.8-0.7,2.8-2l0,0c0-1.2-0.9-1.9-2.6-1.9h-3.7v3.9H44z M44.7,225.8
		c1.8,0,2.9-0.7,2.9-2l0,0c0-1.3-1-2-3.1-2h-4.1v4.1h4.3V225.8z"/>
	<g>
		<path class="st0" d="M56.4,226l1.6-1.9c1.4,1.2,2.8,1.9,4.7,1.9c1.6,0,2.6-0.7,2.6-1.9l0,0c0-1.1-0.6-1.6-3.3-2.3
			c-3.2-0.8-4.9-1.7-4.9-4.4l0,0c0-2.5,2.1-4.3,5.1-4.3c2.2,0,3.9,0.7,5.4,1.9l-1.4,2c-1.3-1-2.7-1.5-4-1.5c-1.5,0-2.4,0.8-2.4,1.8
			l0,0c0,1.1,0.7,1.7,3.5,2.3c3.1,0.8,4.8,1.9,4.8,4.3l0,0c0,2.8-2.2,4.4-5.3,4.4C60.3,228.3,58.1,227.6,56.4,226z"/>
	</g>
	<g>
		<polygon class="st0" points="78.5,215.7 73.8,215.7 73.8,213.3 85.8,213.3 85.8,215.7 81.1,215.7 81.1,228.1 78.5,228.1 		"/>
	</g>
	<path class="st0" d="M103.4,213.3h5.8c3.5,0,5.6,2,5.6,5l0,0c0,3.3-2.7,5.1-5.9,5.1H106v4.8h-2.6L103.4,213.3L103.4,213.3z
		 M109,221c2,0,3.2-1.1,3.2-2.6l0,0c0-1.7-1.3-2.6-3.2-2.6h-3v5.3L109,221L109,221z"/>
	<path class="st0" d="M125.5,213.2h2.4l6.5,14.9h-2.8l-1.5-3.6h-7l-1.5,3.6h-2.7L125.5,213.2z M129.3,222.2l-2.6-5.9l-2.5,5.9H129.3
		z"/>
	<g>
		<polygon class="st0" points="143,215.7 138.3,215.7 138.3,213.3 150.3,213.3 150.3,215.7 145.6,215.7 145.6,228.1 143,228.1 		"/>
	</g>
	<g>
		<polygon class="st0" points="157.3,213.3 168.3,213.3 168.3,215.6 159.9,215.6 159.9,219.5 167.4,219.5 167.4,221.8 159.9,221.8 
			159.9,225.8 168.4,225.8 168.4,228.1 157.3,228.1 		"/>
	</g>
	<g>
		<polygon class="st0" points="175.7,213.3 178.2,213.3 186.1,223.5 186.1,213.3 188.7,213.3 188.7,228.1 186.5,228.1 178.3,217.6 
			178.3,228.1 175.7,228.1 		"/>
	</g>
	<g>
		<polygon class="st0" points="200.4,215.7 195.6,215.7 195.6,213.3 207.7,213.3 207.7,215.7 203,215.7 203,228.1 200.4,228.1 		"/>
	</g>
	<g>
		<path class="st0" d="M224.6,220.8L224.6,220.8c0-4.2,3.2-7.7,7.6-7.7c2.6,0,4.2,0.7,5.7,2l-1.7,2c-1.1-1-2.3-1.6-4.2-1.6
			c-2.7,0-4.8,2.4-4.8,5.2l0,0c0,3.1,2,5.3,5,5.3c1.4,0,2.7-0.4,3.6-1.1v-2.8H232v-2.3h6.3v6.2c-1.5,1.2-3.6,2.3-6.2,2.3
			C227.7,228.4,224.6,225.1,224.6,220.8z"/>
	</g>
	<path class="st0" d="M246.1,213.3h6.6c1.9,0,3.3,0.6,4.3,1.5c0.8,0.8,1.2,1.9,1.2,3.2l0,0c0,2.4-1.5,3.9-3.5,4.5l4,5.6h-3.1
		l-3.6-5.2h-3.3v5.2h-2.6V213.3z M252.5,220.6c1.9,0,3.1-1,3.1-2.5l0,0c0-1.6-1.1-2.5-3.1-2.5h-3.8v5H252.5z"/>
	<path class="st0" d="M265,220.8L265,220.8c0-4.2,3.2-7.7,7.8-7.7c4.6,0,7.7,3.5,7.7,7.6l0,0c0,4.2-3.2,7.7-7.8,7.7
		S265,224.9,265,220.8z M277.8,220.8L277.8,220.8c0-2.9-2.1-5.3-5-5.3c-2.9,0-5,2.4-5,5.2l0,0c0,2.9,2.1,5.3,5,5.3
		C275.7,226,277.8,223.6,277.8,220.8z"/>
	<g>
		<path class="st0" d="M287.7,221.8v-8.5h2.6v8.4c0,2.8,1.4,4.2,3.8,4.2c2.3,0,3.7-1.4,3.7-4.1v-8.5h2.6v8.4c0,4.4-2.5,6.7-6.4,6.7
			S287.7,226.1,287.7,221.8z"/>
	</g>
	<path class="st0" d="M308.2,213.3h5.8c3.5,0,5.6,2,5.6,5l0,0c0,3.3-2.7,5.1-5.9,5.1h-2.9v4.8h-2.6V213.3z M313.8,221
		c2,0,3.2-1.1,3.2-2.6l0,0c0-1.7-1.3-2.6-3.2-2.6h-3v5.3L313.8,221L313.8,221z"/>
</g>
<g>
	<path class="st0" d="M0,0v187.5h94.2V0H0z M72.1,132.5c0,14.9-11,22.7-24.9,22.9h-9.7v21.8H26.4V110h21.5
		c14.7,0,24.2,8.5,24.2,22.4V132.5z"/>
	<path class="st0" d="M60.8,132.7c0,7.5-5,12.6-13.5,12.6h-9.7v-25.2h9.7C55.8,120.1,60.8,124.6,60.8,132.7L60.8,132.7z"/>
	<path class="st0" d="M47.3,120.1h-9.7v25.2h9.7c8.5,0,13.5-5.1,13.5-12.6v-0.1C60.8,124.6,55.8,120.1,47.3,120.1z"/>
</g>
<g>
	<path class="st0" d="M112.7,0v187.5h94.2V0H112.7z M184.9,132.5c0,14.9-11,22.7-24.9,22.9h-9.7v21.8h-11.1V110h21.5
		c14.7,0,24.2,8.5,24.2,22.4V132.5z"/>
	<path class="st0" d="M160,120.1h-9.7v25.2h9.7c8.5,0,13.5-5.1,13.5-12.6v-0.1C173.5,124.6,168.5,120.1,160,120.1z"/>
</g>
<g>
	<path class="st0" d="M225.4,0v187.5h94.2V0H225.4z M298.8,170c-5.7,4.5-13.4,8.2-23,8.2c-18.3,0-30.7-13.4-30.7-34.1v-0.8
		c0-19.8,12.8-34.3,30.8-34.3c9.1,0,15.4,2.6,21.3,7.6l-6.6,8.8c-3.8-3.5-8.1-6.1-14.9-6.1c-11,0-19.1,9.9-19.1,23.8v0.6
		c0,15.2,8.3,24.2,19.7,24.2c4.7,0,8.9-1.4,11.9-3.6v-14.8h-14.1v-9.8h24.7V170z"/>
</g>
</svg>
